<svg xmlns="http://www.w3.org/2000/svg">
  <symbol id="first-class" viewBox="0 0 57 50">
    <path d="M28.2258 0L34.8606 19.0776H56.4516L39.0213 30.9224L45.6561 50L28.2258 38.26L10.7955 50L17.4303 30.9224L0 19.0776H21.5911L28.2258 0Z"/>
  </symbol>
  <symbol id="second-class" viewBox="0 0 50 50">
    <path fill-rule="evenodd" clip-rule="evenodd" d="M4.51465 0H45.4854C47.9683 0 50 2.04541 50 4.54541V45.4546C50 47.9546 47.9683 50 45.4854 50H4.51465C2.03174 50 0 47.9546 0 45.4546V4.54541C0 2.04541 2.03174 0 4.51465 0ZM38.6006 6.25C37.3589 6.25 36.3433 7.27271 36.3433 8.52271V13.7061H44.9775V8.52271C44.9775 7.27271 43.9614 6.25 42.7202 6.25H38.6006ZM44.9775 14.7061H36.3433V29.5454C36.3433 30.7954 37.3589 31.8181 38.6006 31.8181H42.7202C43.9614 31.8181 44.9775 30.7954 44.9775 29.5454V14.7061ZM13.3745 13.7061V8.75C13.3745 7.38647 12.2461 6.25 10.8916 6.25H7.22363C5.86914 6.25 4.74023 7.38647 4.74023 8.75V13.7061H13.3745ZM4.74023 14.7061H13.3745V29.375C13.3745 30.7385 12.2461 31.875 10.8916 31.875H7.22363C5.86914 31.875 4.74023 30.7385 4.74023 29.375V14.7061ZM44.8081 49.2046C47.1782 49.2046 49.1533 47.2727 49.1533 44.8296V36.7046H0.84668V44.8296C0.84668 47.2158 2.76514 49.2046 5.19189 49.2046H44.8081Z"/>
  </symbol>
  <symbol id="third-class" viewBox="0 0 50 50">
    <path fill-rule="evenodd" clip-rule="evenodd" d="M45.4854 0H4.51465C2.03174 0 0 2.0293 0 4.50952V45.4905C0 47.9707 2.03174 50 4.51465 50H17.6475H18.6475H45.4854C47.9683 50 50 47.9707 50 45.4905V4.50952C50 2.0293 47.9683 0 45.4854 0ZM18.6475 47.1814H35.1582C36.3994 47.1814 37.4155 46.1667 37.4155 44.9268H37.3589V40.8682C37.3589 39.6279 36.3433 38.6133 35.1016 38.6133H18.6475V47.1814ZM17.6475 38.6133H14.8418C13.6006 38.6133 12.5845 39.6279 12.5845 40.8682V44.9268C12.5845 46.1667 13.6006 47.1814 14.8418 47.1814H17.6475V38.6133ZM6.60254 29.0869C5.64355 29.0869 4.85352 28.2976 4.85352 27.3394V11.7646H13.4312V27.3394C13.4312 28.2976 12.6411 29.0869 11.6816 29.0869H6.60254ZM4.85352 6.08789V10.7646H13.4312V6.08789C13.4312 5.12964 12.6411 4.34058 11.6816 4.34058H6.60254C5.64355 4.34058 4.85352 5.12964 4.85352 6.08789ZM36.0044 27.283V11.7646H44.6387V27.283C44.6387 28.2976 43.7925 29.1431 42.7764 29.1431H37.8667C36.8511 29.1431 36.0044 28.2976 36.0044 27.283ZM36.0044 10.7646H44.6387V6.14429C44.6387 5.12964 43.7925 4.28418 42.7764 4.28418H37.8667C36.8511 4.28418 36.0044 5.12964 36.0044 6.14429V10.7646Z"/>
  </symbol>
  <symbol id="fourth-class" viewBox="0 0 31 50">
    <path d="M0 19.0289C0.307988 18.6378 0.559979 18.1523 0.951964 17.8691C2.23992 16.952 3.90585 17.5859 4.28384 19.1368C4.61983 20.5394 4.89982 21.9554 5.19381 23.3714C5.71179 25.8124 6.21577 28.2669 6.74775 30.7079C7.44772 33.8771 9.58964 35.5494 12.9635 35.5629C15.3714 35.5764 17.7653 35.5494 20.1732 35.5764C21.5872 35.5898 22.3852 36.2102 22.6092 37.397C22.8331 38.6782 21.9232 39.8649 20.5792 39.8784C17.4573 39.9054 14.3355 39.9863 11.2136 39.8515C7.37772 39.6896 3.80786 36.6418 2.81389 32.7847C2.16992 30.2628 1.69394 27.7005 1.13396 25.1651C0.769971 23.4793 0.377986 21.807 0 20.1213C0 19.7572 0 19.393 0 19.0289Z"/>
    <path d="M9.87021 0C10.9762 0.229264 11.9981 0.579903 12.8801 1.30815C14.714 2.8186 15.274 5.58325 14.126 7.63314C12.8801 9.87183 10.2622 10.9777 7.86828 10.2899C5.48837 9.60211 4.06042 7.94332 3.87843 5.44839C3.73844 3.53336 4.8024 1.51044 7.01431 0.512472C7.51829 0.283208 8.07827 0.175319 8.62425 0C9.03024 0 9.45022 0 9.87021 0Z"/>
    <path d="M24.667 34.5108C24.331 34.5108 24.0931 34.5108 23.8691 34.5108C20.2852 34.5108 16.7013 34.5243 13.1035 34.5108C10.3596 34.4973 8.51164 33.0408 7.97966 30.4515C7.05569 26.055 6.14572 21.6586 5.22176 17.2621C4.28379 12.7982 8.44164 10.6404 11.4235 11.571C13.3275 12.1643 14.3074 13.5399 14.6994 15.3336C15.4834 18.9344 16.2253 22.5352 16.9533 26.1359C17.0793 26.7833 17.2893 27.026 18.0173 27.0125C20.9292 26.9856 23.8411 26.9856 26.753 27.08C28.7269 27.1339 30.2528 28.6713 30.3928 30.5729C30.4208 30.8965 30.4348 31.2202 30.4348 31.5439C30.4348 36.5472 30.4348 41.5371 30.4348 46.5404C30.4348 46.9855 30.4348 47.444 30.3368 47.8755C30.0288 49.2376 28.7969 50.0873 27.3549 49.9929C25.941 49.8985 24.835 48.86 24.695 47.4845C24.667 47.1608 24.667 46.8371 24.667 46.5135C24.667 42.7778 24.667 39.0287 24.667 35.293C24.667 35.0637 24.667 34.821 24.667 34.5108Z"/>
  </symbol>
  <symbol id="wifi" viewBox="0 0 20 16">
    <path d="M20 4.21434C19.7667 4.4347 19.5335 4.65506 19.3069 4.8821C19.0803 5.10914 18.867 5.34953 18.6271 5.60995C16.1946 3.25277 13.3356 2.01074 9.99 2.01074C6.65778 2.01074 3.81206 3.25277 1.44618 5.54318C0.973009 5.07575 0.519827 4.62167 0 4.10082C0.71976 3.53991 1.41953 2.90553 2.19927 2.38468C7.75075 -1.30134 14.9084 -0.660294 19.7467 3.93388C19.8267 4.00734 19.9134 4.07411 20 4.14089C20 4.1676 20 4.18763 20 4.21434Z"/>
    <path d="M9.66998 15.8334C9.58334 15.7933 9.4967 15.7466 9.4034 15.7065C8.69697 15.406 8.30376 14.6648 8.45038 13.9102C8.597 13.1623 9.25678 12.6215 10.0232 12.6215C10.7829 12.6281 11.4427 13.1757 11.5827 13.9236C11.7226 14.6715 11.3161 15.4127 10.603 15.7065C10.5097 15.7466 10.4231 15.7866 10.3298 15.8267C10.1098 15.8334 9.8899 15.8334 9.66998 15.8334Z"/>
    <path d="M4.25845 8.36778C3.78527 7.90035 3.33209 7.45295 2.87891 6.99887C6.32442 3.25943 13.0089 2.76528 17.1142 6.95881C16.6543 7.41288 16.1878 7.86696 15.7146 8.33439C14.1551 6.83861 12.2425 5.99723 9.98987 6.00391C7.74395 6.01059 5.83792 6.84529 4.25845 8.36778Z"/>
    <path d="M14.335 9.81017C13.8619 10.2776 13.4087 10.7317 12.9555 11.1791C11.1761 9.49632 8.61029 9.67661 7.0708 11.1724C6.61762 10.7183 6.16444 10.2709 5.70459 9.81684C7.53065 7.67334 11.7226 7.13246 14.335 9.81017Z"/>  
  </symbol>
  <symbol id="express" viewBox="0 0 20 20">
    <path d="M6.28462 17.3529C6.15402 17.357 6.07239 17.304 6.00097 17.2328C5.4908 16.7339 4.97655 16.2391 4.47047 15.7382C3.89908 15.1721 3.33586 14.5959 2.76039 14.0339C2.63183 13.9076 2.59918 13.7753 2.65019 13.6266C2.76243 13.2907 2.87467 12.9506 3.01547 12.6248C3.92153 10.5173 5.18062 8.63385 6.6948 6.91733C8.10082 5.32298 9.69662 3.9465 11.4924 2.80826C12.1291 2.40509 12.7944 2.05079 13.4453 1.67206C13.5127 1.63337 13.5412 1.66799 13.5821 1.70668C14.2187 2.34197 14.8575 2.97727 15.4942 3.6146C16.4267 4.54515 17.3593 5.47773 18.294 6.40624C18.3531 6.46529 18.3572 6.50398 18.3205 6.57728C17.5246 8.13498 16.5594 9.57865 15.4207 10.9063C14.7003 11.7452 13.9188 12.525 13.0964 13.2642C11.2108 14.9583 9.09666 16.2961 6.72949 17.2226C6.60705 17.2714 6.48053 17.3101 6.35401 17.3509C6.3234 17.3529 6.29074 17.3509 6.28462 17.3529ZM7.63146 11.1221C7.56412 11.8633 8.25183 12.3764 8.85587 12.3723C9.53541 12.3662 10.1027 11.8063 10.1007 11.1241C10.0986 10.552 9.7007 9.88001 8.75791 9.89426C8.14775 9.90444 7.63146 10.4583 7.63146 11.1221ZM12.3944 8.81507C13.1127 8.89041 13.6474 8.16552 13.6412 7.59742C13.6372 7.0171 13.129 6.34719 12.3597 6.3533C11.7455 6.35737 11.1292 6.91733 11.1557 7.6076C11.1822 8.3162 11.674 8.81507 12.3944 8.81507Z"/>
    <path d="M18.7653 5.61827C17.2981 4.17256 15.8288 2.72686 14.3452 1.26486C14.6289 1.15287 14.8942 1.04291 15.1635 0.941104C16.1492 0.564406 17.1613 0.29359 18.2 0.13273C18.6184 0.0675711 19.0428 0.0248108 19.4673 0.00241249C19.8836 -0.0199858 20.0019 0.110331 19.9999 0.52979C19.9958 1.24246 19.8713 1.93885 19.7183 2.63319C19.4918 3.6574 19.1734 4.65515 18.7571 5.61827C18.751 5.63049 18.7449 5.64271 18.7388 5.65289C18.7469 5.64067 18.7571 5.62845 18.7653 5.61827Z"/>
    <path d="M6.97031 5.98269C6.92949 6.03156 6.89276 6.08247 6.84787 6.12726C5.62551 7.39989 4.58885 8.80895 3.70728 10.3341C3.3971 10.8716 3.11957 11.4255 2.83183 11.9752C2.78694 12.0608 2.74408 12.0811 2.65021 12.0547C1.8666 11.8307 1.08298 11.6148 0.299363 11.3929C0.050401 11.3216 -0.0618358 11.0834 0.0340756 10.839C0.0646856 10.7617 0.10754 10.6863 0.152434 10.6151C1.18705 9.00239 2.54002 7.72772 4.24602 6.84604C5.06432 6.42251 5.92753 6.12319 6.83766 5.96029C6.87644 5.95419 6.91521 5.95418 6.95398 5.95215C6.9601 5.96233 6.96419 5.97251 6.97031 5.98269Z"/>
    <path d="M7.90088 17.188C9.01917 16.6504 10.0946 16.0457 11.117 15.3452C12.1373 14.6468 13.0883 13.8608 13.9984 13.0239C14.0106 13.0321 14.0249 13.0402 14.0372 13.0484C14.029 13.1156 14.0229 13.1828 14.0106 13.2499C13.7066 14.8484 12.9944 16.2513 11.9741 17.5056C11.2292 18.4219 10.3538 19.1936 9.34975 19.8187C9.27017 19.8697 9.1865 19.9165 9.09875 19.9511C8.92121 20.0203 8.7498 19.9613 8.67225 19.7882C8.59471 19.6151 8.5294 19.4359 8.47635 19.2547C8.28248 18.5807 8.09474 17.9047 7.90496 17.2307C7.90292 17.2226 7.90292 17.2124 7.90088 17.188Z"/>
    <path d="M5.23356 17.7012C5.09683 17.805 4.96419 17.9231 4.81522 18.0147C4.23159 18.3772 3.60919 18.6684 2.97046 18.9168C2.04808 19.2772 1.11753 19.6132 0.189026 19.9593C0.146172 19.9756 0.0992369 19.9838 0.0339355 20C0.10944 19.7822 0.174742 19.5847 0.246165 19.3892C0.672665 18.2163 1.10325 17.0435 1.65627 15.9215C1.83381 15.5632 2.01747 15.2068 2.28887 14.9055C2.31336 14.879 2.33989 14.8525 2.35826 14.8322C3.31125 15.7851 4.2622 16.7319 5.23356 17.7012Z"/>
  </symbol>
  <symbol id="food" viewBox="0 0 20 18">
    <path d="M1.97686 0C2.25212 0 2.45232 0 2.65251 0C7.65738 0 12.6622 0 17.6671 0C19.2311 0 19.9944 0.764092 19.9944 2.35491C19.9944 3.20668 20.0069 4.07098 19.9944 4.92276C19.9819 6.17537 19.1561 7.00209 17.9174 7.01461C17.2917 7.02714 16.6786 7.01461 16.003 7.01461C16.003 7.99165 16.003 8.89353 16.003 9.80793C15.9905 12.3132 14.3013 14.0167 11.8114 14.0292C9.93459 14.0292 8.05777 14.0418 6.18094 14.0292C3.71605 14.0167 2.00188 12.3257 2.00188 9.87056C1.96434 6.60125 1.97686 3.35699 1.97686 0ZM16.0405 2.0167C16.0405 2.99374 16.0405 3.9833 16.0405 4.97286C16.6912 4.97286 17.3168 4.97286 17.9424 4.97286C17.9424 3.97077 17.9424 2.99374 17.9424 2.0167C17.2917 2.0167 16.6912 2.0167 16.0405 2.0167Z"/>
    <path d="M17.955 16.0709C17.955 16.7223 17.955 17.3486 17.955 17.9999C11.9616 17.9999 5.99333 17.9999 0 17.9999C0 17.3486 0 16.7348 0 16.0709C5.9683 16.0709 11.9366 16.0709 17.955 16.0709Z"/>
  </symbol>
  <symbol id="conditioner" viewBox="0 0 21 21">
    <path d="M8.0993 11.641C7.71469 11.8691 7.35884 12.0788 7.00299 12.2885C6.38474 12.6527 5.77369 13.0205 5.15184 13.3774C5.02963 13.4473 4.9865 13.5319 4.97931 13.6643C4.93258 14.3964 4.87867 15.1321 4.82834 15.8642C4.79959 16.2946 4.49406 16.5889 4.08788 16.5742C3.69249 16.5595 3.40134 16.2284 3.41572 15.798C3.4301 15.4632 3.45526 15.1248 3.47683 14.79C3.48402 14.6576 3.4912 14.5251 3.49839 14.3633C3.39056 14.4258 3.30789 14.47 3.22521 14.5178C2.68245 14.8378 2.13969 15.1616 1.59333 15.4816C1.31296 15.6435 0.989462 15.603 0.759416 15.3897C0.547343 15.1947 0.453887 14.8489 0.590477 14.584C0.66596 14.4369 0.795361 14.2934 0.935545 14.2051C1.49269 13.8556 2.06061 13.5319 2.62494 13.1971C2.67526 13.1677 2.72558 13.1346 2.79388 13.0941C2.36973 12.8807 1.96715 12.6821 1.56457 12.4798C1.21232 12.2995 1.05776 11.9537 1.1584 11.5969C1.28061 11.1738 1.73351 10.9604 2.13969 11.1554C2.80107 11.4718 3.45526 11.8029 4.10945 12.134C4.23526 12.2002 4.33231 12.1965 4.45452 12.1229C5.3747 11.5711 6.29848 11.0303 7.21866 10.4859C7.26898 10.4564 7.3193 10.4233 7.39479 10.3755C7.1935 10.2578 7.01018 10.1474 6.82686 10.0407C6.03968 9.57354 5.24889 9.11369 4.4653 8.63913C4.32871 8.55452 4.22447 8.56188 4.08788 8.63177C3.45167 8.95918 2.81185 9.27556 2.16844 9.58825C1.78743 9.77587 1.37766 9.63975 1.20153 9.27556C1.01822 8.904 1.16559 8.48462 1.5502 8.28597C1.90245 8.10203 2.25831 7.92913 2.61056 7.74887C2.66448 7.72312 2.7148 7.69369 2.78669 7.65322C2.24393 7.33317 1.72273 7.02415 1.20153 6.71514C1.10448 6.65628 1.00384 6.6011 0.906789 6.53856C0.547343 6.31783 0.428726 5.89478 0.622827 5.54161C0.820522 5.18477 1.24826 5.07073 1.61849 5.2841C2.20079 5.62255 2.7795 5.96835 3.35821 6.31047C3.39415 6.33255 3.4301 6.35094 3.49839 6.39141C3.47683 6.03457 3.45885 5.71084 3.44088 5.38343C3.4301 5.22892 3.41572 5.07809 3.41213 4.92358C3.40494 4.51892 3.69249 4.19519 4.07351 4.17679C4.47249 4.1584 4.7924 4.44534 4.82115 4.85736C4.87507 5.60783 4.92899 6.36198 4.97572 7.11244C4.9829 7.23752 5.02963 7.30742 5.13747 7.36628C6.06843 7.91074 6.99221 8.45887 7.91958 9.00701C7.9699 9.03644 8.02022 9.06587 8.09571 9.10633C8.0993 9.0254 8.10649 8.96654 8.10649 8.91136C8.10649 7.81509 8.10289 6.71514 8.11008 5.61887C8.11008 5.48643 8.06695 5.40918 7.95912 5.3356C7.35165 4.9199 6.74419 4.5042 6.14392 4.08115C5.68742 3.76109 5.72336 3.08788 6.20502 2.83405C6.46023 2.70161 6.71543 2.72368 6.95267 2.88555C7.27617 3.10627 7.59967 3.327 7.92317 3.54773C7.9699 3.58083 8.02022 3.61394 8.10649 3.66912C8.10649 3.57348 8.10649 3.50726 8.10649 3.44472C8.10649 2.78254 8.10289 2.12037 8.10649 1.45819C8.11008 0.957879 8.48031 0.62679 8.93321 0.704044C9.24953 0.755547 9.49036 1.02778 9.51552 1.35886C9.51911 1.40669 9.51552 1.45819 9.51552 1.50601C9.51552 7.41778 9.51552 13.3259 9.51552 19.2376C9.51552 19.6349 9.34658 19.9145 9.03745 20.0175C8.56658 20.1794 8.10649 19.8373 8.1029 19.3149C8.0993 18.6454 8.1029 17.9795 8.1029 17.31C8.1029 17.2438 8.1029 17.1812 8.1029 17.0708C7.85128 17.2438 7.63202 17.3909 7.41635 17.5381C7.26179 17.6447 7.11082 17.7514 6.95267 17.8544C6.58963 18.0972 6.16189 18.0236 5.93903 17.6815C5.70899 17.332 5.80604 16.8943 6.17267 16.6404C6.77295 16.2247 7.37322 15.8127 7.9699 15.3933C8.03101 15.3492 8.09571 15.2535 8.09571 15.1836C8.1029 14.0432 8.10289 12.9028 8.0993 11.7624C8.11008 11.7366 8.10649 11.7072 8.0993 11.641Z"/>
    <path d="M19.1595 5.619C18.9474 5.87652 18.7137 6.11564 18.5268 6.38787C18.2536 6.79253 17.9697 7.20455 17.7648 7.64968C17.4161 8.40383 17.6102 9.11015 18.2501 9.62885C18.8324 10.1034 19.5153 10.3609 20.2198 10.5706C20.3025 10.5964 20.3888 10.6184 20.4211 10.6295C19.8496 10.887 19.2529 11.1482 18.6634 11.4278C18.4873 11.5124 18.3255 11.6411 18.1746 11.7699C17.621 12.2371 17.4485 12.8478 17.6749 13.5504C17.8619 14.139 18.2141 14.6246 18.5987 15.0881C18.7641 15.2868 18.9438 15.4744 19.1487 15.6988C18.8935 15.6473 18.6778 15.5958 18.4585 15.559C17.8906 15.4634 17.3227 15.3861 16.744 15.456C15.9208 15.559 15.3925 16.0777 15.2774 16.9165C15.1696 17.7111 15.3062 18.48 15.5003 19.2415C15.5111 19.2819 15.5183 19.3224 15.5398 19.4033C15.3421 19.2231 15.1768 19.0649 15.0043 18.9177C14.5657 18.5425 14.1128 18.193 13.588 17.9576C12.7649 17.5897 12.0496 17.792 11.5212 18.5388C11.1402 19.0759 10.9066 19.6829 10.7197 20.312C10.7017 20.3672 10.6873 20.426 10.6514 20.4738C10.6514 19.2562 10.6514 18.0422 10.6514 16.8098C12.5744 16.7436 14.156 15.9674 15.3565 14.4296C16.2587 13.2708 16.6901 11.9354 16.6505 10.4529C16.5643 7.06844 13.7965 4.41973 10.6586 4.43812C10.6586 3.16527 10.6586 1.89242 10.6586 0.579102C10.6873 0.656356 10.7053 0.700501 10.7161 0.744646C10.9389 1.46568 11.2013 2.16833 11.6434 2.78268C12.1574 3.49268 12.844 3.68765 13.642 3.34553C14.289 3.06962 14.8245 2.63185 15.3206 2.13522C15.3889 2.06532 15.4572 1.9991 15.5255 1.92921C15.5326 1.92185 15.547 1.92185 15.5614 1.91817C15.4967 2.28605 15.4068 2.65024 15.3781 3.01812C15.3421 3.49268 15.3134 3.9746 15.3601 4.44548C15.4392 5.24377 15.9748 5.75144 16.7584 5.8618C17.5024 5.96481 18.2249 5.84341 18.9438 5.65579C19.0085 5.6374 19.0696 5.62268 19.1343 5.60797C19.1379 5.60797 19.1451 5.61165 19.1595 5.619Z"/>
    <path d="M10.6548 15.5333C10.6548 12.2666 10.6548 8.99614 10.6548 5.69629C12.3622 5.77722 13.7424 6.47986 14.6518 7.95505C15.7517 9.73925 15.7266 11.5749 14.6231 13.3555C13.5591 15.0624 11.7008 15.6069 10.6548 15.5333Z"/>
  </symbol>
  <symbol id="linens" viewBox="0 0 22 16">
    <path d="M20.5451 12.1613C20.6816 12.5772 20.8554 13.1645 21.054 13.7395C21.3642 14.6815 20.7313 15.6235 19.7261 15.6235C14.4765 15.6357 9.21459 15.6357 3.96506 15.6113C2.1904 15.599 0.936965 14.7304 0.65153 13.2256C0.515017 12.5283 0.589479 11.7575 0.725991 11.0602C1.17276 8.68681 1.69399 6.32564 2.20281 3.95225C2.28968 3.53629 2.42619 3.12033 2.61235 2.74108C2.99706 1.9581 3.56793 1.43204 4.52352 1.28523C5.33019 1.16289 6.11203 0.857043 6.89388 0.600129C7.39029 0.428853 7.84946 0.404385 8.30864 0.698001C9.15254 1.24853 10.0709 1.38311 11.0761 1.35864C13.31 1.3097 15.5438 1.3464 17.7777 1.35864C18.5719 1.35864 18.5719 1.37087 18.7953 2.10491C19.0807 3.08363 19.3537 4.06235 19.6516 5.04107C19.7261 5.26129 19.8874 5.45703 20.0239 5.65277C20.3342 6.08096 20.7437 6.44798 20.9423 6.91288C21.4759 8.13628 21.4883 9.45755 21.3394 10.7666C21.2897 11.1948 20.8926 11.574 20.5451 12.1613ZM1.63194 10.1794C2.72404 9.33521 3.87819 9.27404 5.06957 9.28627C9.78546 9.29851 14.5013 9.28627 19.2048 9.29851C19.664 9.29851 20.1356 9.35968 20.7313 9.39638C20.6196 8.72351 20.5575 8.09958 20.3962 7.50011C20.0487 6.20331 19.1924 5.70171 17.8645 6.03203C16.9462 6.26448 16.0154 6.50916 15.1715 6.90064C12.6522 8.06287 10.0337 7.87936 7.4027 7.54905C7.11726 7.51234 7.00557 7.36554 7.0428 7.09639C7.08003 6.79054 7.11726 6.49692 7.14208 6.19107C7.21654 5.11448 7.30341 4.03789 7.36547 2.96129C7.39029 2.423 7.36547 1.87247 7.36547 1.24853C7.10485 1.33417 6.89388 1.39534 6.6829 1.45651C5.96311 1.65225 5.25573 1.8847 4.53593 2.03151C3.95265 2.14161 3.54311 2.43523 3.31973 2.94906C3.14599 3.34055 3.00947 3.74427 2.91019 4.16023C2.72404 4.9065 2.58753 5.66501 2.42619 6.42352C2.17799 7.63468 1.91737 8.83362 1.63194 10.1794ZM11.6594 14.9139C14.2035 14.9139 16.7476 14.9139 19.2917 14.9139C19.453 14.9139 19.6268 14.9262 19.7881 14.9017C20.148 14.8527 20.4459 14.498 20.3962 14.1676C20.3466 13.8251 20.1356 13.6293 19.7633 13.6416C19.602 13.6416 19.4282 13.6416 19.2669 13.6416C14.4889 13.6538 9.711 13.666 4.93306 13.666C4.64762 13.666 4.34978 13.6905 4.06434 13.6538C3.46865 13.5926 3.03429 13.0788 3.0467 12.4671C3.05911 11.8799 3.43142 11.4884 4.05193 11.4517C4.68486 11.415 5.33019 11.3783 5.97552 11.3661C10.5425 11.3171 15.1094 11.2804 19.6764 11.2315C19.7757 11.2315 19.8874 11.2315 19.9867 11.2192C20.3466 11.1825 20.6444 10.9012 20.6568 10.6075C20.6568 10.2161 20.3714 10.0937 20.0611 10.0081C19.9246 9.97138 19.7757 9.97138 19.6268 9.97138C14.4393 9.97138 9.23941 9.95915 4.05193 9.99585C3.51829 9.99585 2.94742 10.1916 2.47583 10.4485C0.999016 11.2682 0.874914 13.4091 2.20281 14.3634C2.74886 14.7549 3.4066 14.8772 4.07675 14.8772C6.60844 14.9139 9.14013 14.9139 11.6594 14.9139ZM8.14731 1.46874C8.03562 3.32831 7.92393 5.09001 7.81223 6.81501C11.163 7.54905 14.1911 6.79054 17.0827 5.37139C14.0173 4.45384 11.2002 2.85119 8.14731 1.46874ZM19.7136 11.9655C19.453 11.9655 19.2296 11.9655 18.9939 11.9655C17.1323 11.99 15.2708 12.0389 13.4092 12.0512C10.5425 12.0756 7.67572 12.0756 4.79655 12.1001C4.54834 12.1001 4.28773 12.1001 4.06434 12.1857C3.94024 12.2347 3.77891 12.4426 3.79132 12.565C3.80373 12.6996 3.96506 12.8708 4.10157 12.9442C4.21327 13.0054 4.38701 12.9687 4.52352 12.9687C9.52485 12.9565 14.5386 12.9565 19.5399 12.9442C19.6888 12.9442 19.8377 12.9075 20.0115 12.8953C19.9494 12.6873 19.9122 12.5283 19.8626 12.3692C19.8253 12.2469 19.7757 12.1368 19.7136 11.9655ZM11.3243 2.06821C11.3119 2.10491 11.3119 2.15385 11.2995 2.19055C13.7319 3.35278 16.1519 4.53948 18.9194 5.11448C18.6464 4.14799 18.4106 3.24267 18.1127 2.36183C18.0631 2.21502 17.7652 2.08044 17.5791 2.08044C15.4942 2.06821 13.4092 2.06821 11.3243 2.06821Z"/>
  </symbol>
  <symbol id="train-face" viewBox="0 0 44 52">
    <path d="M34.7879 46.7038C35.7164 48.6856 38.433 49.369 38.5361 52C27.4635 52 16.5284 52 5.45575 52C5.62768 49.4031 8.27549 48.6856 9.27271 46.7379C8.37865 46.5329 7.55336 46.3962 6.76246 46.157C2.84233 44.9611 0.0569744 41.3392 0.0569744 37.2047C-0.0117998 28.389 -0.0117998 19.6416 0.0225873 10.8601C0.0225873 6.79397 1.91388 3.71873 5.73084 2.38613C8.82568 1.32688 12.1268 0.677661 15.3936 0.370137C21.7896 -0.210742 28.22 -0.210742 34.5472 1.12186C36.1634 1.46356 37.7452 2.04443 39.1895 2.76199C42.2843 4.29961 43.9005 6.93065 43.9349 10.3134C44.0037 19.3683 44.0381 28.4232 43.9349 37.478C43.9005 41.6467 40.8057 45.2003 36.748 46.2254C36.129 46.4304 35.4757 46.5329 34.7879 46.7038ZM19.1762 11.1676C14.5683 11.1676 10.0636 11.1676 5.62768 11.1676C5.62768 15.7463 5.62768 20.1884 5.62768 24.6304C10.2012 24.6304 14.6371 24.6304 19.1762 24.6304C19.1762 20.12 19.1762 15.7122 19.1762 11.1676ZM38.433 11.1676C33.8251 11.1676 29.3204 11.1676 24.8844 11.1676C24.8844 15.7463 24.8844 20.1884 24.8844 24.6304C29.4579 24.6304 33.8939 24.6304 38.433 24.6304C38.433 20.12 38.433 15.7122 38.433 11.1676ZM13.743 37.068C13.7774 34.8128 11.8861 32.9335 9.61658 32.9335C7.41581 32.9335 5.55891 34.7103 5.49013 36.8972C5.42136 39.1523 7.24387 41.0658 9.51342 41.1342C11.8174 41.1683 13.7086 39.3232 13.743 37.068ZM38.5017 36.9997C38.5017 34.7445 36.5761 32.8993 34.3065 32.9335C32.1057 32.9677 30.2832 34.7787 30.2488 36.9655C30.2144 39.2207 32.0713 41.1 34.3409 41.1342C36.6448 41.1342 38.5017 39.2548 38.5017 36.9997Z"/>
  </symbol>
  <symbol id="clock" viewBox="0 0 30 30">
    <path d="M15.1454 29.9951C7.11437 30.2063 0.215587 23.5269 0.00493763 15.3691C-0.205712 7.13207 6.35076 0.188668 14.4871 0.00386308C22.9131 -0.180942 29.8119 6.28724 29.9962 14.6035C30.1805 22.9989 23.6241 29.8103 15.1454 29.9951ZM27.4421 15.0259C27.4684 8.1881 21.9389 2.59114 15.0664 2.53834C8.29927 2.45913 2.61173 8.0825 2.5854 14.8939C2.53274 21.7845 8.16762 27.4607 14.9874 27.4607C21.8072 27.4607 27.4157 21.8373 27.4421 15.0259Z"/>
    <path d="M15.3296 14.3922C17.3571 13.4946 19.1476 12.6762 20.9381 11.8842C21.2278 11.7521 21.5174 11.5145 21.8071 11.5409C22.2284 11.5673 22.6233 11.805 23.0446 11.937C22.8603 12.333 22.8077 12.9138 22.4917 13.0722C21.4648 13.6794 20.3589 14.1546 19.3056 14.6562C17.989 15.2899 16.6725 15.9499 15.3559 16.5571C14.171 17.1115 13.5917 16.7683 13.5654 15.5011C13.5391 12.6762 13.5127 9.85129 13.5917 7.02641C13.5917 6.6304 14.1447 6.23439 14.4343 5.83838C14.7503 6.23439 15.3033 6.604 15.3033 7.00001C15.3822 9.37608 15.3296 11.7521 15.3296 14.3922Z"/>
  </symbol>
  <symbol id="arrow" viewBox="0 0 30 20">
    <path d="M19.3627 20C19.3627 17.8073 19.3627 15.3821 19.3627 12.8239C12.8621 12.8239 6.46582 12.8239 0 12.8239C0 11.0299 0 9.36877 0 7.57475C6.32677 7.57475 12.7231 7.57475 19.3279 7.57475C19.3279 4.91694 19.3279 2.42525 19.3279 0C22.9432 3.3887 26.5238 6.77741 30 10.0664C26.5585 13.2558 22.9432 16.6445 19.3627 20Z"/>
  </symbol>
  <symbol id="arrow-negative" viewBox="0 0 32 26">
    <path fill-rule="evenodd" clip-rule="evenodd" d="M5 0C2.23877 0 0 2.23853 0 5V21C0 23.7615 2.23877 26 5 26H27C29.7612 26 32 23.7615 32 21V5C32 2.23853 29.7612 0 27 0H5ZM17.8369 14.2236V17.3333C19.3442 15.8793 20.8667 14.4108 22.3154 13.0288C20.8521 11.6035 19.3442 10.135 17.8223 8.66663V11.949H9.68408V14.2236H17.8369Z"/>
  </symbol>
  <symbol id="arrow-negative-big" viewBox="0 0 76 60">
    <path fill-rule="evenodd" clip-rule="evenodd" d="M5 0C2.23877 0 0 2.23859 0 5V55C0 57.7614 2.23877 60 5 60H71C73.7612 60 76 57.7614 76 55V5C76 2.23859 73.7612 0 71 0H5ZM42.3628 32.8239V40C45.9434 36.6445 49.5586 33.2558 53 30.0664C49.5239 26.7774 45.9434 23.3887 42.3281 20V27.5747H23V32.8239H42.3628Z"/>
  </symbol>
  <symbol id="passenger" viewBox="0 0 26 26">
    <path d="M25.9721 26C17.2752 26 8.72031 26 0.165369 26C-0.219806 21.9313 -0.260351 20.3648 3.83467 18.4118C9.91638 15.5229 16.0792 15.5839 22.2014 18.4118C22.9921 18.7779 23.7219 19.2865 24.4111 19.8358C25.5058 20.7106 26.0735 21.8499 25.9924 23.2943C25.9518 24.1487 25.9721 25.0235 25.9721 26Z"/>
    <path d="M19.4841 6.44946C19.5044 10.0503 16.6054 13.0002 13.0172 13.0206C9.42899 13.0206 6.50977 10.091 6.50977 6.51049C6.50977 2.9503 9.38844 0.0411096 12.9158 0.00042166C16.5243 -0.0402663 19.4638 2.86892 19.4841 6.44946Z"/>
  </symbol>
</svg>
